<?xml version="1.0" standalone="no"?>
<!DOCTYPE svg PUBLIC "-//W3C//DTD SVG 20010904//EN"
 "http://www.w3.org/TR/2001/REC-SVG-20010904/DTD/svg10.dtd">
<svg version="1.0" xmlns="http://www.w3.org/2000/svg"
 width="314.000000pt" height="64.000000pt" viewBox="0 0 314.000000 64.000000"
 preserveAspectRatio="xMidYMid meet">

<g transform="translate(0.000000,64.000000) scale(0.100000,-0.100000)"
fill="#000000" stroke="none">
<path d="M10 320 l0 -320 1565 0 1565 0 0 320 0 320 -1565 0 -1565 0 0 -320z
m620 5 l0 -295 -295 0 -295 0 0 288 c0 159 3 292 7 295 3 4 136 7 295 7 l288
0 0 -295z m412 -42 c14 -13 23 -15 45 -7 50 17 43 88 -10 103 -21 6 -25 10
-12 10 36 2 65 -27 65 -64 0 -24 -7 -39 -22 -49 -30 -21 -47 -20 -75 6 -20 19
-23 30 -21 87 l1 66 6 -67 c4 -44 12 -73 23 -85z m698 82 c0 -70 -20 -105 -60
-105 -28 0 -60 35 -60 65 0 31 33 65 63 64 18 -1 17 -2 -7 -9 -48 -15 -61 -57
-29 -92 20 -22 41 -23 65 -1 14 12 18 31 18 80 0 34 2 63 5 63 3 0 5 -29 5
-65z m872 25 c7 0 7 -4 0 -12 -6 -7 -12 -26 -15 -43 -2 -16 -4 -1 -4 35 0 36
2 55 4 43 2 -13 9 -23 15 -23z m188 30 c0 -5 -5 -10 -11 -10 -5 0 -7 5 -4 10
3 6 8 10 11 10 2 0 4 -4 4 -10z m-1852 -46 c12 -8 22 -19 22 -25 0 -5 -9 0
-20 11 -24 24 -47 25 -72 3 -35 -31 -15 -83 37 -96 18 -4 18 -5 -2 -6 -30 -1
-63 32 -63 64 0 29 32 65 58 65 10 0 28 -7 40 -16z m312 -4 c11 -11 20 -31 20
-45 0 -29 -32 -65 -58 -65 -24 0 -62 36 -61 58 0 14 2 14 6 2 9 -25 35 -50 51
-50 23 0 52 30 52 53 0 25 -27 57 -48 57 -9 0 -27 -10 -40 -22 -25 -23 -25
-23 -13 -1 19 37 61 43 91 13z m155 -5 c19 -18 25 -34 24 -62 l-2 -38 -7 44
c-10 64 -53 90 -92 54 -22 -20 -23 -51 -1 -75 9 -10 11 -18 5 -18 -14 0 -32
33 -32 59 0 27 34 61 60 61 12 0 32 -11 45 -25z m155 5 c14 -14 19 -32 18 -57
l-1 -38 -4 36 c-5 50 -35 76 -71 63 -46 -16 -42 -85 5 -102 16 -6 21 -11 13
-11 -30 -2 -60 29 -60 61 0 61 59 89 100 48z m310 0 c11 -11 20 -29 20 -41 0
-26 -18 -59 -32 -59 -6 0 -4 8 5 18 10 10 17 27 17 37 0 24 -29 55 -51 55 -10
0 -27 -10 -39 -22 -11 -12 -20 -17 -20 -10 0 15 40 42 62 42 10 0 27 -9 38
-20z m124 14 c9 -3 16 -11 16 -17 0 -7 -4 -7 -12 1 -14 14 -37 15 -57 3 -13
-8 -13 -12 0 -27 13 -16 12 -16 -10 -4 l-25 13 23 18 c24 20 39 23 65 13z
m237 -15 l24 -21 -25 16 c-32 21 -53 20 -74 -3 -27 -29 -17 -63 24 -83 19 -10
28 -18 19 -18 -27 0 -69 40 -69 66 0 29 32 64 59 64 10 0 29 -9 42 -21z m159
1 c12 -12 18 -25 14 -31 -4 -6 -11 -1 -18 13 -15 29 -42 35 -67 12 -42 -38
-11 -101 45 -90 22 4 27 3 16 -4 -60 -39 -127 63 -68 104 30 21 54 20 78 -4z
m140 6 c10 -13 7 -13 -18 -4 -24 9 -34 9 -46 -1 -9 -7 -13 -17 -10 -22 3 -5 0
-9 -5 -9 -16 0 -14 11 6 32 19 22 56 24 73 4z m281 4 c10 -6 19 -16 19 -22 0
-6 -9 -3 -20 7 -16 15 -26 17 -48 9 -46 -16 -42 -85 5 -102 16 -6 21 -11 13
-11 -31 -2 -60 29 -60 64 0 51 46 79 91 55z m159 -10 c14 -14 20 -32 18 -62
l-1 -43 -4 40 c-3 22 -12 48 -20 58 -35 38 -79 8 -86 -58 l-4 -40 -1 43 c-2
47 23 82 58 82 11 0 29 -9 40 -20z m-293 -72 c-2 -18 -4 -6 -4 27 0 33 2 48 4
33 2 -15 2 -42 0 -60z m-417 3 c0 -23 -8 -48 -18 -61 -20 -25 -66 -30 -85 -11
-9 10 -6 10 14 3 46 -18 79 11 79 71 0 20 2 37 5 37 3 0 5 -18 5 -39z m255 22
c19 -9 35 -20 35 -24 0 -12 -43 -39 -60 -38 -8 0 -3 5 13 11 36 13 34 31 -5
51 -18 8 -30 16 -26 16 4 1 23 -7 43 -16z m322 -5 c-3 -8 -6 -5 -6 6 -1 11 2
17 5 13 3 -3 4 -12 1 -19z m-1870 -25 c-3 -10 -5 -4 -5 12 0 17 2 24 5 18 2
-7 2 -21 0 -30z m1063 10 c8 -8 -41 -43 -59 -42 -9 0 -4 5 12 11 31 11 34 22
10 38 -15 9 -14 10 7 4 14 -3 27 -9 30 -11z m-200 -33 c7 0 11 -3 7 -6 -11
-11 -47 7 -58 29 l-12 22 25 -22 c13 -13 30 -23 38 -23z m116 3 c-7 -7 -26 7
-26 19 0 6 6 6 15 -2 9 -7 13 -15 11 -17z m515 10 c13 -16 12 -17 -3 -4 -17
13 -22 21 -14 21 2 0 10 -8 17 -17z m179 -20 c0 -7 -39 17 -46 28 -3 6 5 3 20
-6 14 -10 26 -19 26 -22z m190 33 c0 -2 -8 -10 -17 -17 -16 -13 -17 -12 -4 4
13 16 21 21 21 13z m-1453 -32 c-3 -3 -12 -4 -19 -1 -8 3 -5 6 6 6 11 1 17 -2
13 -5z m33 -29 c-7 -8 -19 -15 -27 -15 -10 0 -8 6 8 19 27 22 38 19 19 -4z
m-53 -11 c-3 -3 -12 -4 -19 -1 -8 3 -5 6 6 6 11 1 17 -2 13 -5z"/>
<path d="M291 443 c-51 -26 -76 -66 -75 -117 1 -48 19 -80 61 -107 30 -20 113
-26 113 -9 0 6 -11 8 -24 4 -67 -17 -136 44 -136 120 0 56 52 106 109 106 52
0 94 -21 109 -55 7 -14 12 -59 12 -100 0 -43 5 -77 11 -81 8 -4 10 20 8 85 -4
89 -5 91 -40 127 -44 44 -97 54 -148 27z"/>
</g>
</svg>
